<svg width="42" height="42" viewBox="0 0 42 42" fill="none" xmlns="http://www.w3.org/2000/svg">
<circle cx="21" cy="21" r="15" fill="#96B0CD"/>
<path d="M11.5 17H20.9645C21.6275 17 22.2634 16.7366 22.7322 16.2678L22.8715 16.1285C23.7709 15.2291 23.7666 13.7666 22.8672 12.8672V12.8672C22.3269 12.3269 21.5499 12.09 20.8006 12.2399V12.2399C19.9963 12.4007 19.3399 12.9802 19.0806 13.7583L19 14" stroke="white" stroke-width="2" stroke-linecap="round"/>
<path d="M16 21H28.407C29.0563 21 29.6801 20.7474 30.1465 20.2956L30.2852 20.1612C31.2233 19.2524 31.2233 17.7476 30.2852 16.8388V16.8388C29.7426 16.3131 28.9775 16.0856 28.2359 16.2293L28.1956 16.2371C27.3561 16.3998 26.6673 16.9983 26.389 17.8069L26.3226 18" stroke="white" stroke-width="2" stroke-linecap="round"/>
<path d="M11 25H24.407C25.0563 25 25.6801 25.2526 26.1465 25.7044L26.2852 25.8388C27.2233 26.7476 27.2233 28.2524 26.2852 29.1612V29.1612C25.7426 29.6869 24.9775 29.9144 24.2359 29.7707L24.1956 29.7629C23.3561 29.6002 22.6672 29.0017 22.389 28.1931L22.3226 28" stroke="white" stroke-width="2" stroke-linecap="round"/>
</svg>
