<svg width="34" height="34" viewBox="0 0 34 34" fill="none" xmlns="http://www.w3.org/2000/svg">
<circle cx="17" cy="17" r="17" fill="#96B0CD"/>
<path d="M6.2334 12.4667H16.9598C17.7112 12.4667 18.4319 12.1682 18.9633 11.6369L19.1211 11.479C20.1404 10.4597 20.1355 8.80218 19.1162 7.78289V7.78289C18.5038 7.17049 17.6233 6.90207 16.7741 7.07192V7.07192C15.8626 7.25421 15.1187 7.91093 14.8247 8.79276L14.7334 9.06672" stroke="#D7E4F3" stroke-width="2" stroke-linecap="round"/>
<path d="M11.3333 17H25.3945C26.1304 17 26.8374 16.7137 27.3659 16.2017L27.5231 16.0494C28.5863 15.0194 28.5863 13.314 27.5231 12.284V12.284C26.9082 11.6883 26.0411 11.4304 25.2006 11.5932L25.1549 11.6021C24.2035 11.7864 23.4228 12.4648 23.1075 13.3812L23.0322 13.6" stroke="#D7E4F3" stroke-width="2" stroke-linecap="round"/>
<path d="M5.66675 21.5333H10M18.499 24.9333L18.5743 25.1521C18.8896 26.0685 19.6703 26.7469 20.6218 26.9312L20.6674 26.9401C21.5079 27.1029 22.375 26.8451 22.9899 26.2494V26.2494C24.0532 25.2194 24.0532 23.5139 22.9899 22.4839L22.8328 22.3316C22.3042 21.8196 21.5972 21.5333 20.8613 21.5333H14" stroke="#D7E4F3" stroke-width="2" stroke-linecap="round"/>
</svg>
