<svg width="34" height="34" viewBox="0 0 34 34" fill="none" xmlns="http://www.w3.org/2000/svg">
<circle cx="17" cy="17" r="17" fill="#4F3D33"/>
<path d="M28 20.64L24.7323 10.0136C24.5878 9.54347 24.2751 9.14312 23.854 8.88902L23.2539 8.52695M28 20.64L17.4089 17.5455M28 20.64L24.25 25.4276C24.0043 25.7414 23.6703 25.9746 23.2911 26.0973L17.4089 28M17.4089 28L9.34615 24.1605C8.54747 23.7802 8.09352 22.9204 8.22996 22.0463L10.2222 9.28359M17.4089 28L17.4089 17.5455M10.2222 9.28359L16.3786 5.61411C17.0128 5.23609 17.8037 5.23823 18.4359 5.61968L19.5 6.26178M10.2222 9.28359L17.4089 17.5455" stroke="#8C6F5F" stroke-width="2" stroke-linecap="round"/>
</svg>
