<svg width="42" height="42" viewBox="0 0 42 42" fill="none" xmlns="http://www.w3.org/2000/svg">
<path d="M34.5237 27.5124C33.8765 35.6831 26.9946 39 21.5799 39C16.1651 39 12.3574 36.9775 10.4104 34.1461C8.4633 31.3146 7.77195 27.6896 8.0643 23.7101C8.38371 19.3622 10.734 15.8629 12.7565 13.436C12.7565 13.436 13.3583 16.4595 15.1834 17.1573C15.8306 13.7596 15.5934 11.8989 18.9102 7.85393C22.2271 3.80899 27.8845 3 27.8845 3C26.1857 7.61124 26.9946 9.63371 26.9946 9.63371C26.9677 10.5236 27.8845 13.9213 30.6351 16.5101C34.3564 20.7169 34.5237 24.6 34.5237 27.5124Z" fill="#FF9537"/>
<path d="M27.7282 31.8869C27.4124 35.8529 24.054 37.4629 21.4115 37.4629C18.7691 37.4629 16.9109 36.4812 15.9607 35.1069C15.0105 33.7325 14.6731 31.9729 14.8158 30.0413C14.9717 27.9309 16.1186 26.2323 17.1056 25.0543C17.1056 25.0543 17.3993 26.5219 18.29 26.8606C18.6058 25.2114 18.4901 24.3082 20.1087 22.3448C21.7274 20.3814 24.4883 19.9888 24.4883 19.9888C23.6592 22.227 24.054 23.2087 24.054 23.2087C24.0408 23.6407 24.4883 25.2899 25.8306 26.5465C27.6466 28.5884 27.7282 30.4733 27.7282 31.8869Z" fill="#FF5A36"/>
</svg>
