<svg width="34" height="34" viewBox="0 0 34 34" fill="none" xmlns="http://www.w3.org/2000/svg">
<circle cx="17" cy="17" r="17" fill="#FF5A36"/>
<path d="M9.51636 23C9.0776 21.6925 8.92485 20.2265 9.03873 18.6562C9.23141 15.9991 10.28 13.4831 11.5 12C11.5 12 12.142 13.8377 13.0053 14.6646C13.2311 14.8809 13.553 14.7159 13.5973 14.4064C13.8519 12.6237 13.7762 11.1965 15.5814 8.96629C17.5822 6.49438 20.995 6 20.995 6C19.9702 8.81798 20.4582 10.0539 20.4582 10.0539C20.4419 10.5978 20.995 12.5 22.5 14.5C24.5 17.5 24.5 19.2202 24.5 21C24.1096 25.9933 19.8836 28 17.1918 28C15.4133 28 13.7186 27.5635 12.3407 26.6905" stroke="#FAAA4D" stroke-width="2" stroke-linecap="round"/>
<path d="M19 21.6664C18.9062 22.9021 17.8462 24.0223 16.3077 23.9997C15.1538 23.9997 14 23.2219 14 21.6664C14 20.4998 14.3846 19.7221 15.1538 18.9444C15.9231 18.1666 17.4615 17 17.4615 17C17.4615 17 18.2308 18.9444 18.6154 19.7221C19 20.4998 19 21.2776 19 21.6664Z" stroke="#FAAA4D" stroke-width="2"/>
</svg>
