<svg width="15" height="18" viewBox="0 0 15 18" fill="none" xmlns="http://www.w3.org/2000/svg">
<path fill-rule="evenodd" clip-rule="evenodd" d="M2.7 1C2.7 0.447716 3.14772 0 3.7 0H10.7C11.2523 0 11.7 0.447715 11.7 1V1.7C11.7 2.25228 11.2523 2.7 10.7 2.7H9.45V3.95854C12.3245 4.90335 14.4 7.6093 14.4 10.8C14.4 14.7765 11.1764 18 7.2 18C3.22355 18 0 14.7765 0 10.8C0 7.6093 2.07546 4.90335 4.95 3.95854V2.7H3.7C3.14772 2.7 2.7 2.25229 2.7 1.7V1ZM1.8 10.8C1.8 11.0059 1.81152 11.209 1.83395 11.4089C2.57465 10.9127 3.69199 10.35 4.95 10.35C6.13769 10.35 6.82384 10.6008 7.47174 10.8376C8.05124 11.0494 8.60015 11.25 9.45 11.25C10.5261 11.25 11.763 10.7675 12.5839 10.3794C12.3693 7.59364 10.0408 5.4 7.2 5.4C4.21766 5.4 1.8 7.81766 1.8 10.8Z" fill="#42FCE6"/>
</svg>
