<svg width="42" height="42" viewBox="0 0 42 42" fill="none" xmlns="http://www.w3.org/2000/svg">
<circle cx="21" cy="21" r="15" fill="#8E62B7"/>
<g clip-path="url(#clip0)">
<path d="M10.9167 21C10.9167 21 14.5834 13.6666 21.0001 13.6666C27.4167 13.6666 31.0834 21 31.0834 21C31.0834 21 27.4167 28.3333 21.0001 28.3333C14.5834 28.3333 10.9167 21 10.9167 21Z" stroke="white" stroke-width="2" stroke-linecap="round" stroke-linejoin="round"/>
<path d="M21 23.75C22.5188 23.75 23.75 22.5188 23.75 21C23.75 19.4812 22.5188 18.25 21 18.25C19.4812 18.25 18.25 19.4812 18.25 21C18.25 22.5188 19.4812 23.75 21 23.75Z" stroke="white" stroke-width="2" stroke-linecap="round" stroke-linejoin="round"/>
</g>
<defs>
<clipPath id="clip0">
<rect x="10" y="10" width="22" height="22" fill="white"/>
</clipPath>
</defs>
</svg>
