<svg width="42" height="42" viewBox="0 0 42 42" fill="none" xmlns="http://www.w3.org/2000/svg">
<mask id="mask0" mask-type="alpha" maskUnits="userSpaceOnUse" x="7" y="7" width="28" height="28">
<circle cx="21" cy="21" r="14" fill="#27AE6D"/>
</mask>
<g mask="url(#mask0)">
<rect x="6" y="6" width="30" height="33" fill="#319D70"/>
<path fill-rule="evenodd" clip-rule="evenodd" d="M15.4247 9.11189L14.9487 7.68372L13.0513 8.31617L13.5274 9.74434C13.9467 11.0024 14.8486 12.0423 16.0347 12.6353L16.5809 12.9084C17.5015 13.3687 18.1219 14.2689 18.2243 15.2932L18.484 17.8901C17.5787 18.6235 17 19.7441 17 20.9999C17 22.4335 17.7541 23.6909 18.8873 24.3971L18.135 27.7827L15.9701 28.7105C15.2201 29.0319 14.5863 29.5751 14.1538 30.2671L12.152 33.4699L13.848 34.5299L15.8498 31.3271C16.066 30.9811 16.3829 30.7095 16.7579 30.5488L18.924 29.6205L22.7364 31.908C23.0626 32.1037 23.3262 32.3883 23.4963 32.7285L27.1056 39.9472L28.8944 39.0527L25.2851 31.8341C24.9449 31.1537 24.4177 30.5844 23.7654 30.193L20.1325 28.0133L20.8032 24.9952C20.8684 24.9983 20.934 24.9999 21 24.9999C23.0537 24.9999 24.7459 23.4522 24.9739 21.4595L27.819 20.1464C28.2762 19.9354 28.8191 20.0973 29.086 20.5244L29.9805 21.9556C30.5955 22.9395 31.7227 23.4806 32.8751 23.3451L40.1168 22.4931L39.8832 20.5068L32.6414 21.3588C32.2573 21.404 31.8815 21.2236 31.6765 20.8956L30.782 19.4644C29.9813 18.1832 28.3527 17.6973 26.9808 18.3305L24.6666 19.3986C24.049 17.9866 22.6397 16.9999 21 16.9999C20.7993 16.9999 20.6021 17.0147 20.4093 17.0433L20.2144 15.0942C20.0437 13.3871 19.0097 11.8868 17.4753 11.1196L16.9291 10.8465C16.2175 10.4907 15.6763 9.86671 15.4247 9.11189ZM25.5 13.9999C26.3284 13.9999 27 13.3284 27 12.4999C27 11.6715 26.3284 10.9999 25.5 10.9999C24.6716 10.9999 24 11.6715 24 12.4999C24 13.3284 24.6716 13.9999 25.5 13.9999ZM15 13.9999C15 14.5522 14.5523 14.9999 14 14.9999C13.4477 14.9999 13 14.5522 13 13.9999C13 13.4477 13.4477 12.9999 14 12.9999C14.5523 12.9999 15 13.4477 15 13.9999ZM12 24.9999C13.1046 24.9999 14 24.1045 14 22.9999C14 21.8954 13.1046 20.9999 12 20.9999C10.8954 20.9999 10 21.8954 10 22.9999C10 24.1045 10.8954 24.9999 12 24.9999ZM29 27.9999C29 28.5522 28.5523 28.9999 28 28.9999C27.4477 28.9999 27 28.5522 27 27.9999C27 27.4477 27.4477 26.9999 28 26.9999C28.5523 26.9999 29 27.4477 29 27.9999Z" fill="#6FCF97"/>
</g>
</svg>
