<svg width="34" height="34" viewBox="0 0 34 34" fill="none" xmlns="http://www.w3.org/2000/svg">
<circle cx="17" cy="17" r="17" fill="#D94343"/>
<path d="M24.1501 11.2C24.8834 13.2166 28.0001 14.5 28.0001 18.35C28.0001 18.7857 27.9904 19.3703 27.9652 20C27.9318 20.8349 27.8712 21.7489 27.7699 22.5C27.6905 23.0891 27.586 23.5781 27.4501 23.85C26.9001 24.95 25.5 26.5 24 27C22.5 27.5 18.5 28 17 27.5" stroke="#FD9595" stroke-width="1.8" stroke-linecap="round"/>
<path d="M19.75 22.75C20.85 24.95 23.05 23.85 23.6 23.3C25.25 21.65 24.7 12.85 24.15 11.2C23.8021 10.1564 22.693 9.55 21.95 9.55C20.6261 9.55 20.0104 10.2582 19.8187 10.5381C19.7927 10.5761 19.7246 10.5688 19.7085 10.5257C19.5646 10.1416 19.014 9 17.55 9C15.9032 9 15.0911 9.96299 14.8432 10.5374C14.8256 10.5783 14.764 10.5831 14.7398 10.5457C14.4896 10.1602 13.8041 9.55 12.6 9.55C11.2859 9.55 10.5896 10.6401 10.4025 11.1926C10.4013 11.1961 10.3969 11.1969 10.3943 11.1943C9.95272 10.7591 9.11508 10.65 8.75 10.65C6.99 10.65 6.18333 13.2167 6 14.5C6 17.0667 6 21.65 7.65 22.2C9.3 22.75 10.0333 22.2 10.4 21.65M19.75 22.75V16.15M19.75 22.75C19.5667 23.3 18.76 24.4 17 24.4C15.24 24.4 14.8 23.3 14.8 22.75M14.8 22.75V16.15M14.8 22.75C14.8 22.75 13.7 24.4 12.05 23.85C10.4 23.3 10.4 21.65 10.4 21.65M10.4 21.65V16.7" stroke="#FD9595" stroke-width="1.8" stroke-linecap="round"/>
</svg>
