<svg width="34" height="34" viewBox="0 0 34 34" fill="none" xmlns="http://www.w3.org/2000/svg">
<circle cx="17" cy="17" r="17" fill="#8E62B7"/>
<circle cx="17" cy="17" r="17" fill="#8E62B7"/>
<path d="M22.9583 10.2318C21.2893 9.12599 19.2932 8.33337 16.9999 8.33337C9.41658 8.33337 5.08325 17 5.08325 17C5.08325 17 9.41658 25.6667 16.9999 25.6667C24.5832 25.6667 28.9166 17 28.9166 17C28.9166 17 27.8811 14.9291 25.9367 12.8119" stroke="#CCB3E3" stroke-width="2" stroke-linecap="round" stroke-linejoin="round"/>
<path d="M17 20.25C18.7949 20.25 20.25 18.7949 20.25 17C20.25 15.2051 18.7949 13.75 17 13.75C15.2051 13.75 13.75 15.2051 13.75 17C13.75 18.7949 15.2051 20.25 17 20.25Z" stroke="#CCB3E3" stroke-width="2" stroke-linecap="round" stroke-linejoin="round"/>
</svg>
