<svg width="34" height="34" viewBox="0 0 34 34" fill="none" xmlns="http://www.w3.org/2000/svg">
<mask id="mask0" mask-type="alpha" maskUnits="userSpaceOnUse" x="0" y="0" width="34" height="34">
<circle cx="17" cy="17" r="17" fill="#27AE6D"/>
</mask>
<g mask="url(#mask0)">
<rect x="-1" y="-1" width="36" height="39" fill="#319D70"/>
<path fill-rule="evenodd" clip-rule="evenodd" d="M10.9798 3.83769L9.4382 -0.345703L7.56157 0.345838L9.10315 4.52923C9.54294 5.7227 10.421 6.7037 11.5587 7.27251L12.6413 7.81385C13.562 8.27418 14.1824 9.17439 14.2848 10.1986L14.5935 13.2856C13.5188 14.1022 12.8248 15.3941 12.8248 16.848C12.8248 18.495 13.7152 19.934 15.041 20.7098L14.1955 24.5145L11.479 25.6787C10.8454 25.9502 10.2928 26.3808 9.87469 26.9288L5.70498 32.3934C5.36996 32.8324 5.45429 33.4599 5.89336 33.795C6.33242 34.13 6.95994 34.0457 7.29497 33.6066L11.4647 28.142C11.6737 27.8681 11.9501 27.6528 12.2668 27.517L15.0883 26.3078L18.154 27.4382C18.6722 27.6293 19.2472 27.3641 19.4382 26.8459C19.6293 26.3277 19.3641 25.7528 18.8459 25.5617L16.2262 24.5958L16.9571 21.3067C17.069 21.3151 17.1821 21.3193 17.2961 21.3193C19.6383 21.3193 21.5599 19.5184 21.7517 17.2258L25.0577 15.6999C25.515 15.4889 26.0579 15.6508 26.3248 16.0779L27.5139 17.9804C28.1289 18.9644 29.2561 19.5055 30.4084 19.3699L38.6517 18.4001L38.4181 16.4138L30.1747 17.3836C29.7906 17.4288 29.4149 17.2484 29.2099 16.9204L28.0208 15.0179C27.22 13.7367 25.5914 13.2509 24.2196 13.884L21.4406 15.1666C20.7761 13.5305 19.1708 12.3767 17.2961 12.3767C17.0312 12.3767 16.7716 12.3997 16.5193 12.4439L16.2749 9.99961C16.1042 8.29256 15.0702 6.79222 13.5358 6.02499L12.4531 5.48366C11.7705 5.14237 11.2437 4.55377 10.9798 3.83769ZM22.3264 9.02321C23.2524 9.02321 24.0031 8.27251 24.0031 7.34646C24.0031 6.42042 23.2524 5.66972 22.3264 5.66972C21.4003 5.66972 20.6496 6.42042 20.6496 7.34646C20.6496 8.27251 21.4003 9.02321 22.3264 9.02321ZM10.5892 9.02321C10.5892 9.64057 10.0887 10.141 9.47132 10.141C8.85396 10.141 8.35349 9.64057 8.35349 9.02321C8.35349 8.40585 8.85396 7.90538 9.47132 7.90538C10.0887 7.90538 10.5892 8.40585 10.5892 9.02321ZM6.23566 22.4714C7.47038 22.4714 8.47132 21.4704 8.47132 20.2357C8.47132 19.001 7.47038 18 6.23566 18C5.00094 18 4 19.001 4 20.2357C4 21.4704 5.00094 22.4714 6.23566 22.4714ZM26.2388 24.6728C26.2388 25.2902 25.7383 25.7907 25.1209 25.7907C24.5036 25.7907 24.0031 25.2902 24.0031 24.6728C24.0031 24.0555 24.5036 23.555 25.1209 23.555C25.7383 23.555 26.2388 24.0555 26.2388 24.6728ZM21.0528 29.3915C21.5467 29.1445 22.1474 29.3448 22.3944 29.8387L26.0154 37.0807C26.2624 37.5746 26.0621 38.1753 25.5682 38.4223C25.0742 38.6693 24.4735 38.4691 24.2265 37.9751L20.6055 30.7332C20.3586 30.2392 20.5588 29.6385 21.0528 29.3915Z" fill="#6FCF97"/>
</g>
</svg>
