<svg width="42" height="42" viewBox="0 0 42 42" fill="none" xmlns="http://www.w3.org/2000/svg">
<path d="M21 5C21 5 29 16.5 29.4825 17.2506C29.965 18.0013 32.3052 21.1154 32.7688 23.4731C33.2325 25.8308 32.9953 28.2747 32.0873 30.4959C31.1793 32.717 29.6412 34.6155 27.6677 35.9513C25.6941 37.287 23.3737 38 21 38C18.6263 38 16.3059 37.287 14.3323 35.9513C12.3588 34.6155 10.8207 32.717 9.9127 30.4959C9.00468 28.2747 8.7675 25.8308 9.23116 23.4731C9.69482 21.1154 12.035 18.0013 12.5175 17.2506C13 16.5 21 5 21 5Z" fill="#2D9CDB"/>
</svg>
