<svg width="34" height="34" viewBox="0 0 34 34" fill="none" xmlns="http://www.w3.org/2000/svg">
<circle cx="17" cy="17" r="17" fill="#2D9CDB"/>
<path d="M22.655 14.1671C22.9767 14.6675 24.5368 16.7436 24.8459 18.3154C25.155 19.8872 24.9969 21.5165 24.3915 22.9973C23.7862 24.478 22.7608 25.7437 21.4451 26.6342C20.1294 27.5247 18.5825 28 17 28C15.4175 28 13.8706 27.5247 12.5549 26.6342C11.2392 25.7437 10.2138 24.478 9.60847 22.9973C9.00312 21.5165 8.845 19.8872 9.15411 18.3154C9.46321 16.7436 11.0233 14.6675 11.345 14.1671C11.6667 13.6667 17 6 17 6C17 6 18.5297 8.19891 20 10.3183" stroke="#A3D4F0" stroke-width="2" stroke-linecap="round" stroke-linejoin="round"/>
<path d="M13 20C13 21.5 13.9999 22.5 14.5 23C15.0001 23.5 16.1763 24 16.9999 24" stroke="#A3D4F0" stroke-width="2" stroke-linecap="round"/>
</svg>
